<svg width="50" height="48" viewBox="0 0 50 48" fill="none" xmlns="http://www.w3.org/2000/svg">
<path d="M43.2291 9H6.73747C5.93096 9 5.15748 9.31607 4.58718 9.87868C4.01689 10.4413 3.6965 11.2044 3.6965 12V36C3.6965 36.7956 4.01689 37.5587 4.58718 38.1213C5.15748 38.6839 5.93096 39 6.73747 39H43.2291C44.0356 39 44.8091 38.6839 45.3794 38.1213C45.9497 37.5587 46.2701 36.7956 46.2701 36V12C46.2701 11.2044 45.9497 10.4413 45.3794 9.87868C44.8091 9.31607 44.0356 9 43.2291 9ZM39.8841 12L24.9833 22.17L10.0825 12H39.8841ZM6.73747 36V13.365L24.1166 25.23C24.3711 25.4042 24.6735 25.4975 24.9833 25.4975C25.2931 25.4975 25.5955 25.4042 25.85 25.23L43.2291 13.365V36H6.73747Z" fill="black"/>
</svg>
