<svg width="22" height="13" viewBox="0 0 22 13" fill="none" xmlns="http://www.w3.org/2000/svg">
<path d="M18.6226 5.50084L0.757446 5.50084L0.757446 6.87584L18.6226 6.87584L13.8553 11.2016C13.713 11.3307 13.6331 11.5058 13.6331 11.6883C13.6331 11.8709 13.713 12.046 13.8553 12.1751C13.9975 12.3042 14.1904 12.3767 14.3915 12.3767C14.5927 12.3767 14.7856 12.3042 14.9278 12.1751L20.9874 6.67509C21.0579 6.61123 21.1139 6.53536 21.1521 6.45184C21.1903 6.36831 21.2099 6.27877 21.2099 6.18834C21.2099 6.09791 21.1903 6.00837 21.1521 5.92484C21.1139 5.84132 21.0579 5.76545 20.9874 5.70159L14.9278 0.201591C14.7856 0.0724968 14.5927 -2.6354e-05 14.3915 -2.63452e-05C14.1904 -2.63364e-05 13.9975 0.0724968 13.8553 0.201591C13.713 0.330685 13.6331 0.505775 13.6331 0.688342C13.6331 0.870908 13.713 1.046 13.8553 1.17509L18.6226 5.50084Z" fill="#050505"/>
</svg>
