<svg width="48" height="46" viewBox="0 0 48 46" fill="none" xmlns="http://www.w3.org/2000/svg">
<path d="M24.2625 1.09521C11.9992 1.09521 2.05853 10.902 2.05853 23C2.05853 35.098 11.9992 44.9047 24.2625 44.9047C36.5257 44.9047 46.4664 35.098 46.4664 23C46.4664 10.902 36.5257 1.09521 24.2625 1.09521ZM24.2625 4.26921C29.0996 4.26921 33.5148 6.05445 36.8676 8.99188C34.4041 12.1976 30.6616 14.3323 26.9114 15.7769C24.7884 11.9625 22.4091 8.2926 19.7895 4.79164C21.2546 4.44325 22.7565 4.26787 24.2636 4.26921H24.2625ZM16.1847 6.0435C18.6604 9.69721 21.0584 13.0848 23.2488 16.9192C17.709 18.3354 11.4486 19.1853 5.66556 19.1995C6.88455 13.3641 10.8579 8.51874 16.1847 6.0446V6.0435ZM38.9737 11.1583C41.7172 14.4658 43.2265 18.6024 43.249 22.8762C38.8571 22.0219 34.4896 21.7985 30.0421 22.241C29.5425 21.011 28.9364 19.8424 28.3557 18.5829C32.1892 17.0572 36.2881 14.4462 38.9737 11.1572V11.1583ZM24.7909 19.8172C25.2661 20.8139 25.8167 21.8719 26.3341 22.9529C20.1503 25.6428 13.5724 29.2374 10.1585 35.5394C6.88123 31.9615 5.13466 27.2712 5.28476 22.4513C11.9071 22.4206 18.4073 21.6035 24.7909 19.8172ZM34.8249 24.9243C37.5879 24.9249 40.3395 25.2746 43.0125 25.9648C42.6004 28.5016 41.6636 30.9277 40.2604 33.092C38.8571 35.2564 37.0175 37.1128 34.8559 38.5458C33.8368 33.9732 32.8654 29.5977 31.1479 25.1861C32.3651 25.0111 33.5936 24.9232 34.8237 24.9232L34.8249 24.9243ZM43.1114 25.2638C43.098 25.3712 43.0858 25.4763 43.0703 25.5815C43.0858 25.4752 43.0991 25.3701 43.1114 25.2638ZM27.6352 26.0415C29.3849 30.5024 30.7582 35.4419 31.6797 40.2489C29.334 41.2307 26.8116 41.7351 24.2636 41.7318C20.0424 41.7378 15.9407 40.3498 12.6121 37.789C16.0503 32.2865 21.3759 28.1224 27.6341 26.0425L27.6352 26.0415Z" fill="black"/>
</svg>
