<svg width="47" height="45" viewBox="0 0 47 45" fill="none" xmlns="http://www.w3.org/2000/svg">
<path d="M37.7543 12.2959L40.4849 9.70752V9.14062H31.0279L24.2882 25.7695L16.6219 9.14062H6.70608V9.70752L9.89553 13.5132C10.2074 13.7944 10.3677 14.2075 10.3276 14.6206V29.5752C10.4256 30.1157 10.2519 30.665 9.86881 31.0562L6.27399 35.376V35.9341H16.4571V35.3672L12.8667 31.0605C12.6743 30.8679 12.5296 30.634 12.4439 30.3771C12.3581 30.1203 12.3336 29.8473 12.3723 29.5796V16.6421L21.3125 35.9429H22.3504L30.039 16.6421V32.0186C30.039 32.4228 30.039 32.5063 29.7717 32.7744L27.0055 35.4243V35.9912H40.4225V35.4243L37.7543 32.8359C37.5226 32.6602 37.4024 32.3657 37.4514 32.0801V13.0518C37.4283 12.9105 37.4443 12.7658 37.4976 12.6328C37.5509 12.4998 37.6396 12.3834 37.7543 12.2959Z" fill="black"/>
</svg>
